<svg width="121" height="50" viewBox="0 0 121 50" fill="none" xmlns="http://www.w3.org/2000/svg">
<g clip-path="url(#clip0_524_60)">
<path d="M22.1201 6.4218C20.7022 8.10427 18.4334 9.43128 16.1647 9.24171C15.8811 6.96682 16.9918 4.54976 18.2916 3.05687C19.7096 1.32701 22.191 0.0947867 24.1998 0C24.4361 2.36967 23.5145 4.69194 22.1201 6.4218ZM24.1762 9.69194C20.8912 9.50237 18.0789 11.564 16.5191 11.564C14.9357 11.564 12.5488 9.78673 9.94922 9.83412C6.56973 9.88152 3.42657 11.8009 1.70137 14.8578C-1.84355 20.9716 0.779693 30.0237 4.20645 35C5.88438 37.4645 7.89317 40.1659 10.54 40.0711C13.0451 39.9763 14.0377 38.436 17.0627 38.436C20.1113 38.436 20.9857 40.0711 23.6326 40.0237C26.374 39.9763 28.0992 37.5592 29.7772 35.0948C31.6914 32.2986 32.4713 29.5735 32.5186 29.4313C32.4713 29.3839 27.2248 27.3697 27.1775 21.3033C27.1303 16.2322 31.3133 13.8152 31.5023 13.673C29.1391 10.1659 25.4523 9.78673 24.1762 9.69194ZM43.1533 2.81991V39.763H48.8725V27.1327H56.7895C64.0211 27.1327 69.1022 22.1564 69.1022 14.9526C69.1022 7.74881 64.1156 2.81991 56.9785 2.81991H43.1533ZM48.8725 7.65403H55.466C60.4289 7.65403 63.2649 10.3081 63.2649 14.9763C63.2649 19.6445 60.4289 22.3223 55.4424 22.3223H48.8725V7.65403ZM79.5479 40.0474C83.14 40.0474 86.4723 38.2227 87.9848 35.3318H88.1029V39.763H93.3967V21.3744C93.3967 16.0427 89.1428 12.6066 82.5965 12.6066C76.5229 12.6066 72.0326 16.09 71.8672 20.8768H77.0191C77.4445 18.6019 79.5479 17.109 82.4311 17.109C85.9287 17.109 87.8902 18.7441 87.8902 21.7536V23.7915L80.7531 24.218C74.1123 24.6209 70.5201 27.346 70.5201 32.0853C70.5201 36.872 74.2305 40.0474 79.5479 40.0474ZM81.084 35.6635C78.0354 35.6635 76.0975 34.1943 76.0975 31.9431C76.0975 29.6209 77.9645 28.2701 81.533 28.0569L87.8902 27.654V29.7393C87.8902 33.1991 84.9598 35.6635 81.084 35.6635ZM100.463 49.8104C106.04 49.8104 108.663 47.6777 110.956 41.2085L121 12.9621H115.186L108.451 34.7867H108.333L101.597 12.9621H95.6182L105.308 39.8578L104.788 41.4929C103.913 44.2654 102.495 45.3318 99.9666 45.3318C99.5176 45.3318 98.6432 45.2844 98.2887 45.237V49.6682C98.6195 49.763 100.038 49.8104 100.463 49.8104Z" fill="#C8C8C8"/>
</g>
<defs>
<clipPath id="clip0_524_60">
<rect width="121" height="50" fill="white"/>
</clipPath>
</defs>
</svg>
