<svg width="234" height="50" viewBox="0 0 234 50" fill="none" xmlns="http://www.w3.org/2000/svg">
<g clip-path="url(#clip0_522_37)">
<path d="M84.6593 27.4182C84.6593 33.4909 80.1781 37.7757 73.9111 37.7757C68.0025 37.7757 63.1235 33.9264 63.1235 26.3459V22.6147C63.1235 15.3121 66.6538 10.0053 73.1963 8.77539L82.8624 7.57397V11.4627L74.1078 12.5044C70.1425 13.2988 67.7227 15.8351 67.4845 21.1135C68.9906 18.0979 71.9263 17.2947 74.6237 17.2947C80.4164 17.2969 84.6593 21.3848 84.6593 27.4182ZM80.2175 27.3788C80.2175 23.7286 77.6009 21.1091 73.9526 21.1091C70.265 21.1091 67.6484 23.7286 67.6484 27.3788C67.6484 31.11 70.265 33.6879 73.9526 33.6879C77.6009 33.6879 80.2175 31.1078 80.2175 27.3788Z" fill="#C8C8C8"/>
<path d="M108.254 28.6087C108.27 27.9587 108.254 27.3372 108.211 26.7376C107.706 20.0609 103.478 16.3844 97.7531 16.3844C91.6369 16.3844 87.252 21.0259 87.252 27.1403C87.252 33.5653 91.8315 37.8152 98.0723 37.8152C102.685 37.8152 106.353 35.1147 107.623 31.6461H103.244C102.234 33.0161 100.525 34.0468 98.1094 34.0468C94.7125 34.0468 92.0697 31.8212 91.7921 28.6087H108.254ZM91.7965 25.1554C92.0304 22.2208 94.5202 20.0762 97.7553 20.0762C101.115 20.0762 103.48 22.258 103.6 25.1554H91.7965Z" fill="#C8C8C8"/>
<path d="M109.778 33.4887C111.365 33.4099 113.028 32.5367 113.028 29.2432V16.822H129.18V37.419H124.699V20.8705H117.433V29.3242C117.433 35.0381 114.062 37.6182 109.738 37.5394L109.778 33.4887Z" fill="#C8C8C8"/>
<path d="M141.425 26.4268L151.286 16.8198H146.066L140.614 22.1179L137.545 25.1006V16.8198H137.475H133.327H133.062V37.4168H133.327H137.475H137.545V27.7573L140.566 31.1602L146.108 37.4168H151.323L141.425 26.4268Z" fill="#C8C8C8"/>
<path d="M169.218 16.8001L168.673 19.8595C166.907 17.6974 163.871 16.4019 161.138 16.4019C161.106 16.4019 161.077 16.4062 161.044 16.4062C160.996 16.4062 160.95 16.4019 160.9 16.4019C157.93 16.4019 155.512 17.4895 153.781 19.2599C153.698 19.343 153.61 19.4262 153.529 19.5115C153.481 19.5641 153.435 19.6231 153.389 19.6779C151.721 21.5664 150.788 24.1378 150.788 27.0768C150.788 27.0899 150.79 27.103 150.79 27.1161C150.79 27.1293 150.788 27.1424 150.788 27.1555C150.788 30.0945 151.721 32.6681 153.389 34.5544C153.437 34.6091 153.481 34.666 153.529 34.7207C153.61 34.8083 153.698 34.8893 153.781 34.9724C155.512 36.7428 157.93 37.8304 160.9 37.8304C160.948 37.8304 160.996 37.8261 161.044 37.8261C161.077 37.8261 161.106 37.8304 161.138 37.8304C163.871 37.8304 166.907 36.5349 168.673 34.3728V37.4321H173.233V37.3928V16.8417V16.8023H169.218V16.8001ZM162.05 33.7075C158.163 33.7075 155.387 30.9699 155.387 27.1205C155.387 23.2712 158.163 20.5335 162.05 20.5335C165.897 20.5335 168.634 23.3915 168.634 27.1205C168.634 30.8495 165.897 33.7075 162.05 33.7075Z" fill="#C8C8C8"/>
<path d="M177.106 16.8001V16.8395V46.6693V46.7087H181.666V34.375C183.433 36.5371 186.469 37.8326 189.201 37.8326C189.234 37.8326 189.262 37.8282 189.295 37.8282C189.343 37.8282 189.389 37.8326 189.439 37.8326C192.41 37.8326 194.828 36.745 196.559 34.9746C196.642 34.8914 196.73 34.8083 196.81 34.7229C196.858 34.6704 196.904 34.6113 196.95 34.5566C198.618 32.6681 199.552 30.0967 199.552 27.1577C199.552 27.1446 199.549 27.1315 199.549 27.1183C199.549 27.1052 199.552 27.0921 199.552 27.0789C199.552 24.14 198.618 21.5664 196.95 19.6801C196.902 19.6253 196.858 19.5684 196.81 19.5137C196.73 19.4262 196.642 19.3452 196.559 19.2621C194.828 17.4917 192.41 16.4041 189.439 16.4041C189.391 16.4041 189.343 16.4084 189.295 16.4084C189.262 16.4084 189.234 16.4041 189.201 16.4041C186.469 16.4041 183.433 17.6996 181.666 19.8617L181.122 16.8023H177.106V16.8001ZM181.708 27.1183C181.708 23.3872 184.445 20.5313 188.292 20.5313C192.178 20.5313 194.955 23.269 194.955 27.1183C194.955 30.9677 192.178 33.7053 188.292 33.7053C184.445 33.7075 181.708 30.8495 181.708 27.1183Z" fill="#C8C8C8"/>
<path d="M233.51 24.5711V37.4453H228.983V25.7222C228.983 21.9867 227.077 20.3169 224.535 20.3169C221.914 20.3169 219.929 22.0654 219.929 25.7222V37.4453H215.402V25.7222C215.402 21.9867 213.456 20.3169 210.993 20.3169C208.332 20.3169 206.348 22.0654 206.348 25.7222V37.4453H201.781V16.8221H205.764L206.28 19.7961C207.471 17.6909 209.445 16.3866 212.503 16.3866C215.282 16.3866 217.559 17.5311 218.79 19.7961C220.141 17.6909 222.39 16.3866 225.726 16.3866C230.373 16.3844 233.51 19.5247 233.51 24.5711Z" fill="#C8C8C8"/>
<path d="M22.5617 39.2508L14.5197 47.1464C13.9798 47.676 13.9885 48.3544 14.1743 48.814C14.3601 49.2735 14.8301 49.7637 15.5842 49.7659L29.7359 49.8119C30.8245 49.8162 31.7273 48.9321 31.747 47.8401C31.747 47.7832 31.7492 47.7241 31.7492 47.6651C31.7579 44.5619 30.5272 41.5245 28.3566 39.3077C26.7718 37.6926 24.1749 37.6664 22.5617 39.2508Z" fill="#C8C8C8"/>
<path d="M13.3283 33.2458L2.06421 33.1364C1.31007 33.1299 0.835723 33.6135 0.643362 34.0709C0.451 34.5282 0.435699 35.2066 0.966879 35.7428L10.9413 45.7918C11.7085 46.5643 12.972 46.5774 13.7545 45.8224C13.7961 45.783 13.8376 45.7415 13.8791 45.6999C16.0782 43.5115 17.3526 40.4937 17.3832 37.3884C17.405 35.1257 15.5864 33.2677 13.3283 33.2458Z" fill="#C8C8C8"/>
<path d="M2.45977 31.6571C2.51879 31.6571 2.57562 31.6592 2.63464 31.6592C5.73429 31.668 8.76835 30.4359 10.9827 28.2629C12.5959 26.6807 12.62 24.0787 11.0395 22.4637L3.15271 14.4127C2.62371 13.8721 1.94608 13.8809 1.48703 14.0669C1.02799 14.2529 0.538341 14.7234 0.536155 15.4784L0.490251 29.6437C0.485879 30.7336 1.36899 31.6374 2.45977 31.6571Z" fill="#C8C8C8"/>
<path d="M4.59736 13.7714C6.78329 15.9729 9.79768 17.2488 12.8995 17.2794C15.1576 17.3013 17.0134 15.4806 17.0353 13.22L17.1446 1.94326C17.1511 1.18827 16.668 0.713395 16.2112 0.520818C15.7543 0.328241 15.0767 0.312922 14.5411 0.844698L4.50555 10.8303C3.73392 11.5984 3.72081 12.8633 4.47495 13.6467C4.51648 13.6883 4.55583 13.7299 4.59736 13.7714Z" fill="#C8C8C8"/>
<path d="M27.8054 10.9288L35.8474 3.03313C36.3874 2.50355 36.3786 1.82515 36.1928 1.36559C36.007 0.906032 35.537 0.415836 34.7829 0.413648L20.6334 0.367692C19.5448 0.363315 18.642 1.24742 18.6223 2.33942C18.6223 2.3985 18.6202 2.4554 18.6202 2.51449C18.6114 5.6176 19.8421 8.65507 22.0127 10.8719C23.5953 12.4869 26.1944 12.511 27.8054 10.9288Z" fill="#C8C8C8"/>
<path d="M37.041 16.9316L48.305 17.041C49.0592 17.0475 49.5335 16.5639 49.7259 16.1065C49.9183 15.6492 49.9336 14.9708 49.4024 14.4346L39.428 4.38561C38.6607 3.61311 37.3973 3.59998 36.6147 4.35497C36.5732 4.39436 36.5316 4.43594 36.4901 4.47752C34.2911 6.66589 33.0167 9.68366 32.9861 12.789C32.962 15.0539 34.7829 16.9097 37.041 16.9316Z" fill="#C8C8C8"/>
<path d="M47.9093 18.5203C47.8503 18.5203 47.7935 18.5181 47.7344 18.5181C44.6348 18.5094 41.6007 19.7414 39.3864 21.9145C37.7732 23.4967 37.7491 26.0986 39.3295 27.7137L47.2164 35.7647C47.7454 36.3052 48.423 36.2965 48.882 36.1105C49.3411 35.9245 49.8307 35.454 49.8329 34.699L49.8788 20.5314C49.881 19.4438 48.9979 18.54 47.9093 18.5203Z" fill="#C8C8C8"/>
<path d="M45.7694 36.4081C43.5835 34.2066 40.5691 32.9307 37.4673 32.9001C35.2092 32.8782 33.3534 34.6989 33.3315 36.9595L33.2222 48.2362C33.2157 48.9912 33.6988 49.4661 34.1556 49.6587C34.6125 49.8513 35.2901 49.8666 35.8257 49.3348L45.8634 39.3492C46.6351 38.5811 46.6482 37.3162 45.894 36.5328C45.8525 36.4912 45.811 36.4475 45.7694 36.4081Z" fill="#C8C8C8"/>
</g>
<defs>
<clipPath id="clip0_522_37">
<rect width="234" height="50" fill="white"/>
</clipPath>
</defs>
</svg>
