<svg width="175" height="50" viewBox="0 0 175 50" fill="none" xmlns="http://www.w3.org/2000/svg">
    <path d="M71.3233 38.188C70.5265 38.188 69.91 37.9587 69.4731 37.5C69.037 37.0333 68.8072 36.384 68.7838 35.5507L68.7725 35.092L68.7838 34.6333C68.8072 33.8 69.037 33.1533 69.4731 32.6953C69.91 32.2287 70.5265 31.9953 71.3233 31.9953C71.829 31.9953 72.2578 32.0873 72.6098 32.2707C72.9698 32.4467 73.2383 32.676 73.414 32.9587C73.5903 33.234 73.6865 33.5207 73.7019 33.8187C73.7057 33.8526 73.7014 33.887 73.6893 33.919C73.6773 33.951 73.6577 33.9797 73.6324 34.0027C73.5818 34.0474 73.5163 34.0719 73.4487 34.0713H73.2878C73.2116 34.0713 73.1542 34.056 73.1154 34.0247C73.0729 33.9644 73.0381 33.899 73.0119 33.83C72.8589 33.41 72.6445 33.1113 72.3687 32.936C72.0928 32.7527 71.7441 32.6607 71.3233 32.6607C70.7716 32.6607 70.3314 32.8287 70.0022 33.1653C69.6802 33.494 69.5079 34.002 69.4845 34.6907L69.4731 35.092L69.4845 35.4933C69.5079 36.1813 69.6802 36.6933 70.0022 37.03C70.3314 37.3587 70.7716 37.5227 71.3233 37.5227C71.7441 37.5227 72.0928 37.4353 72.3687 37.2593C72.6445 37.076 72.8589 36.774 73.0119 36.3527C73.0358 36.2864 73.0708 36.2246 73.1154 36.17C73.1542 36.1313 73.2116 36.1127 73.2878 36.1127H73.4487C73.5175 36.1127 73.579 36.1393 73.6324 36.1927C73.6579 36.2129 73.6778 36.2393 73.6899 36.2695C73.7021 36.2997 73.7062 36.3325 73.7019 36.3647C73.6825 36.675 73.5833 36.9751 73.414 37.236C73.2383 37.5113 72.9698 37.7407 72.6098 37.9247C72.2578 38.1 71.829 38.188 71.3233 38.188ZM77.437 38.188C76.7096 38.188 76.1238 37.9513 75.6796 37.4773C75.2348 36.9953 74.9823 36.3533 74.9209 35.5507L74.9095 35.092L74.9209 34.6333C74.9823 33.838 75.2315 33.2 75.6676 32.718C76.1118 32.236 76.7016 31.9953 77.437 31.9953C78.2338 31.9953 78.8543 32.2593 79.2985 32.7867C79.7507 33.314 79.9765 34.0367 79.9765 34.954V35.126C79.9765 35.2027 79.9498 35.264 79.8963 35.31C79.8719 35.3333 79.8429 35.3514 79.8112 35.3632C79.7795 35.375 79.7458 35.3803 79.712 35.3787H75.6215V35.4933C75.6369 35.8527 75.7177 36.1887 75.8633 36.5027C76.0163 36.808 76.2267 37.0567 76.4952 37.248C76.763 37.4313 77.077 37.5227 77.437 37.5227C77.8585 37.5227 78.1991 37.4427 78.4596 37.282C78.7281 37.114 78.9191 36.946 79.034 36.7773C79.0774 36.7147 79.1276 36.657 79.1836 36.6053C79.2217 36.5827 79.2872 36.5713 79.3787 36.5713H79.563C79.6255 36.5692 79.6867 36.5895 79.7354 36.6287C79.7575 36.6465 79.7752 36.6692 79.7872 36.695C79.7991 36.7208 79.8049 36.749 79.8042 36.7773C79.8042 36.938 79.7006 37.1333 79.4942 37.3627C79.2945 37.584 79.0153 37.7793 78.6553 37.9473C78.2953 38.108 77.8892 38.188 77.437 38.188ZM79.2758 34.736V34.6907C79.2758 34.102 79.1068 33.616 78.7702 33.234C78.4409 32.852 77.9967 32.6607 77.437 32.6607C76.8779 32.6607 76.4337 32.852 76.1044 33.234C75.7825 33.616 75.6215 34.102 75.6215 34.6907V34.736H79.2758ZM81.7565 40.252C81.7228 40.2537 81.689 40.2484 81.6573 40.2366C81.6256 40.2248 81.5966 40.2067 81.5722 40.1833C81.5488 40.1591 81.5306 40.1303 81.5188 40.0988C81.507 40.0672 81.5017 40.0336 81.5034 40V32.3627C81.5034 32.286 81.5261 32.2247 81.5722 32.1787C81.5967 32.1554 81.6256 32.1373 81.6573 32.1255C81.689 32.1137 81.7228 32.1084 81.7565 32.11H81.9516C82.0284 32.11 82.0892 32.1333 82.1353 32.1787C82.1814 32.2253 82.2041 32.2853 82.2041 32.3627V32.9013C82.6489 32.2973 83.2921 31.9953 84.1344 31.9953C84.962 31.9953 85.5711 32.2593 85.9612 32.7867C86.36 33.3067 86.5704 33.9487 86.5931 34.7133C86.6011 34.79 86.6051 34.916 86.6051 35.092C86.6051 35.2673 86.6011 35.394 86.5931 35.47C86.5704 36.2347 86.36 36.8807 85.9612 37.408C85.5711 37.928 84.962 38.188 84.1344 38.188C83.2995 38.188 82.6563 37.886 82.2041 37.282V40C82.2057 40.0336 82.2005 40.0672 82.1887 40.0988C82.1768 40.1303 82.1587 40.1591 82.1353 40.1833C82.111 40.2067 82.0821 40.2248 82.0505 40.2366C82.019 40.2485 81.9853 40.2537 81.9516 40.252H81.7565ZM84.0656 37.5227C84.6861 37.5227 85.1383 37.328 85.4215 36.938C85.7127 36.5407 85.8697 36.032 85.8924 35.4127C85.9004 35.3367 85.9038 35.2293 85.9038 35.092C85.9038 34.3807 85.7662 33.8 85.4903 33.3487C85.2145 32.89 84.7396 32.6607 84.0656 32.6607C83.4605 32.6607 83.0049 32.8633 82.6983 33.2687C82.3918 33.666 82.2274 34.136 82.2041 34.6787L82.1927 35.126L82.2041 35.5733C82.2121 35.902 82.2849 36.2153 82.4225 36.5133C82.5607 36.804 82.7671 37.0453 83.043 37.236C83.3189 37.4273 83.6595 37.5227 84.0656 37.5227ZM88.4212 38.0733C88.3875 38.075 88.3537 38.0697 88.322 38.0579C88.2903 38.0461 88.2613 38.028 88.2369 38.0047C88.2136 37.9804 88.1954 37.9516 88.1836 37.9201C88.1718 37.8886 88.1665 37.855 88.1681 37.8213V32.3627C88.1681 32.286 88.1908 32.2247 88.2369 32.1787C88.2614 32.1554 88.2903 32.1373 88.322 32.1255C88.3537 32.1137 88.3875 32.1084 88.4212 32.11H90.6842C91.3047 32.11 91.7877 32.2513 92.1323 32.5347C92.4843 32.8173 92.6606 33.196 92.6606 33.67C92.6606 34.014 92.5959 34.2773 92.4656 34.4613C92.3427 34.6447 92.1397 34.8013 91.8565 34.9313C92.1477 35.038 92.3734 35.2333 92.5344 35.516C92.6954 35.7987 92.7755 36.0973 92.7755 36.4107C92.7755 36.946 92.5919 37.3587 92.2238 37.6493C91.8638 37.932 91.3702 38.0733 90.7417 38.0733H88.4212ZM90.5693 34.736C90.9908 34.736 91.3281 34.6407 91.5806 34.4493C91.8331 34.2587 91.96 33.9987 91.96 33.6693C91.96 33.3487 91.8371 33.1193 91.592 32.9813C91.3548 32.844 91.0135 32.7747 90.5693 32.7747H88.8688V34.736H90.5693ZM90.6502 37.408C91.0863 37.408 91.431 37.324 91.6841 37.156C91.9446 36.98 92.0749 36.732 92.0749 36.4107C92.0749 36.0667 91.956 35.814 91.7182 35.654C91.4884 35.4853 91.1324 35.4013 90.6502 35.4013H88.8688V37.408H90.6502ZM99.1523 32.11C99.1825 32.1099 99.2123 32.1159 99.24 32.1277C99.2676 32.1395 99.2926 32.1569 99.3133 32.1787C99.3344 32.1976 99.3513 32.2206 99.3632 32.2463C99.375 32.2719 99.3815 32.2998 99.3821 32.328V37.8213C99.3837 37.855 99.3784 37.8886 99.3666 37.9201C99.3548 37.9516 99.3367 37.9804 99.3133 38.0047C99.289 38.028 99.2601 38.0461 99.2286 38.0579C99.197 38.0697 99.1633 38.0749 99.1296 38.0733H98.9339C98.9002 38.075 98.8666 38.0698 98.835 38.058C98.8034 38.0462 98.7746 38.028 98.7503 38.0047C98.7269 37.9804 98.7088 37.9516 98.697 37.9201C98.6851 37.8886 98.6799 37.855 98.6815 37.8213V33.28L95.142 37.9013C95.0579 38.016 94.9584 38.0733 94.8435 38.0733H94.6251C94.5951 38.0735 94.5653 38.0675 94.5377 38.0557C94.5102 38.0439 94.4853 38.0265 94.4647 38.0047C94.4428 37.9841 94.4253 37.9592 94.4133 37.9315C94.4014 37.9039 94.3952 37.8741 94.3953 37.844V32.3627C94.3953 32.286 94.4187 32.2247 94.4647 32.1787C94.489 32.1553 94.5179 32.1372 94.5495 32.1254C94.5811 32.1136 94.6147 32.1083 94.6484 32.11H94.8435C94.8772 32.1083 94.9108 32.1136 94.9424 32.1254C94.974 32.1372 95.0029 32.1553 95.0272 32.1787C95.0733 32.2253 95.0966 32.2853 95.0966 32.3627V36.904L98.6354 32.282C98.7195 32.1673 98.819 32.11 98.9339 32.11H99.1523ZM103.503 38.188C102.707 38.188 102.09 37.9587 101.654 37.5C101.217 37.0333 100.987 36.384 100.964 35.5507L100.952 35.092L100.964 34.6333C100.987 33.8 101.217 33.1533 101.654 32.6953C102.09 32.2287 102.707 31.9953 103.503 31.9953C104.009 31.9953 104.438 32.0873 104.79 32.2707C105.15 32.4467 105.418 32.676 105.595 32.9587C105.771 33.234 105.866 33.5207 105.882 33.8187C105.886 33.8526 105.882 33.887 105.87 33.919C105.858 33.951 105.838 33.9796 105.813 34.0027C105.762 34.0474 105.697 34.0719 105.629 34.0713H105.468C105.392 34.0713 105.334 34.056 105.296 34.0247C105.253 33.9645 105.218 33.8991 105.193 33.83C105.04 33.41 104.825 33.1113 104.549 32.936C104.273 32.7527 103.925 32.6607 103.503 32.6607C102.952 32.6607 102.511 32.8287 102.182 33.1653C101.86 33.494 101.688 34.002 101.665 34.6907L101.654 35.092L101.665 35.4933C101.688 36.1813 101.86 36.6933 102.182 37.03C102.511 37.3587 102.952 37.5227 103.503 37.5227C103.925 37.5227 104.273 37.4353 104.549 37.2593C104.825 37.076 105.04 36.774 105.193 36.3527C105.216 36.2862 105.251 36.2244 105.296 36.17C105.334 36.1313 105.392 36.1127 105.468 36.1127H105.629C105.698 36.1127 105.76 36.1393 105.813 36.1927C105.839 36.2129 105.858 36.2394 105.87 36.2696C105.882 36.2997 105.886 36.3325 105.882 36.3647C105.863 36.6749 105.764 36.975 105.595 37.236C105.418 37.5113 105.15 37.7407 104.79 37.9247C104.438 38.1 104.009 38.188 103.503 38.188ZM114.717 40.252C114.683 40.2536 114.649 40.2483 114.618 40.2365C114.586 40.2247 114.557 40.2066 114.533 40.1833C114.51 40.1591 114.491 40.1303 114.48 40.0988C114.468 40.0672 114.463 40.0336 114.464 40V37.282C114.012 37.886 113.369 38.188 112.534 38.188C111.706 38.188 111.094 37.928 110.696 37.408C110.305 36.8807 110.098 36.2347 110.075 35.47L110.064 35.092L110.075 34.7133C110.098 33.9487 110.305 33.3067 110.696 32.7867C111.094 32.2593 111.706 31.9953 112.534 31.9953C113.376 31.9953 114.02 32.2973 114.464 32.902V32.362C114.464 32.286 114.487 32.2247 114.533 32.1787C114.557 32.1554 114.586 32.1374 114.618 32.1255C114.649 32.1137 114.683 32.1085 114.717 32.11H114.912C114.989 32.11 115.05 32.1333 115.096 32.1787C115.142 32.2253 115.165 32.2853 115.165 32.3627V40C115.167 40.0336 115.161 40.0672 115.149 40.0988C115.138 40.1303 115.119 40.1591 115.096 40.1833C115.072 40.2066 115.043 40.2247 115.011 40.2365C114.98 40.2483 114.946 40.2536 114.912 40.252H114.717ZM112.603 37.5227C113.009 37.5227 113.349 37.4273 113.625 37.236C113.901 37.0453 114.108 36.804 114.246 36.514C114.383 36.2153 114.456 35.902 114.464 35.574C114.472 35.4967 114.476 35.3473 114.476 35.126C114.476 34.9047 114.472 34.7553 114.464 34.6793C114.441 34.136 114.276 33.666 113.97 33.2687C113.664 32.8633 113.208 32.6607 112.603 32.6607C111.982 32.6607 111.527 32.8593 111.235 33.2567C110.952 33.6467 110.799 34.1513 110.776 34.7707L110.764 35.092C110.764 35.8027 110.902 36.388 111.178 36.8467C111.454 37.2973 111.929 37.5227 112.603 37.5227ZM117.291 38.0733C117.257 38.0749 117.224 38.0697 117.192 38.0579C117.16 38.0461 117.132 38.028 117.107 38.0047C117.084 37.9804 117.066 37.9516 117.054 37.9201C117.042 37.8886 117.037 37.855 117.038 37.8213V32.374C117.038 32.2973 117.061 32.236 117.107 32.1907C117.13 32.1644 117.158 32.1436 117.19 32.1297C117.222 32.1159 117.256 32.1094 117.291 32.1107H117.475C117.551 32.1107 117.613 32.1374 117.659 32.1907C117.712 32.236 117.739 32.2973 117.739 32.374V32.9013C118.015 32.374 118.536 32.11 119.302 32.11H119.727C119.804 32.11 119.865 32.1333 119.911 32.1787C119.957 32.2253 119.98 32.2853 119.98 32.3627V32.5227C119.982 32.5564 119.976 32.5901 119.964 32.6217C119.953 32.6533 119.935 32.6822 119.911 32.7067C119.887 32.73 119.858 32.7481 119.826 32.7599C119.794 32.7717 119.761 32.777 119.727 32.7753H119.233C118.774 32.7753 118.41 32.9087 118.141 33.1767C117.873 33.444 117.739 33.8073 117.739 34.266V37.8213C117.739 37.8973 117.712 37.9587 117.659 38.0047C117.635 38.028 117.606 38.0461 117.574 38.0579C117.543 38.0697 117.509 38.0749 117.475 38.0733H117.291ZM123.968 38.0733C123.934 38.075 123.9 38.0697 123.868 38.0579C123.837 38.0461 123.808 38.028 123.783 38.0047C123.76 37.9803 123.742 37.9515 123.73 37.92C123.718 37.8885 123.713 37.8549 123.714 37.8213V32.3627C123.714 32.286 123.738 32.2247 123.783 32.1787C123.808 32.1554 123.837 32.1373 123.868 32.1255C123.9 32.1137 123.934 32.1084 123.968 32.11H128.218C128.295 32.11 128.357 32.1333 128.403 32.1787C128.448 32.2253 128.472 32.2853 128.472 32.3627V37.8213C128.473 37.8549 128.468 37.8885 128.456 37.92C128.444 37.9515 128.426 37.9803 128.403 38.0047C128.378 38.028 128.349 38.0461 128.318 38.0579C128.286 38.0697 128.252 38.075 128.218 38.0733H128.023C127.99 38.075 127.956 38.0698 127.924 38.058C127.893 38.0462 127.864 38.028 127.84 38.0047C127.816 37.9804 127.798 37.9516 127.786 37.9201C127.775 37.8886 127.769 37.855 127.771 37.8213V32.7747H124.416V37.8213C124.417 37.855 124.412 37.8886 124.4 37.9201C124.388 37.9516 124.37 37.9804 124.346 38.0047C124.322 38.0281 124.293 38.0462 124.262 38.058C124.23 38.0698 124.196 38.0751 124.163 38.0733H123.968ZM129.956 38.0733C129.884 38.0753 129.815 38.0508 129.76 38.0047C129.714 37.9501 129.689 37.8807 129.691 37.8093V37.626C129.691 37.5573 129.711 37.5 129.749 37.454C129.771 37.4314 129.798 37.4137 129.828 37.4019C129.857 37.3901 129.889 37.3844 129.921 37.3853C130.312 37.3853 130.61 37.1027 130.817 36.5367C131.024 35.9707 131.127 35.05 131.127 33.7727V32.3627C131.127 32.286 131.151 32.2247 131.197 32.1787C131.221 32.1553 131.25 32.1372 131.281 32.1254C131.313 32.1136 131.347 32.1083 131.38 32.11H134.667C134.743 32.11 134.804 32.1333 134.85 32.1787C134.896 32.2253 134.919 32.2853 134.919 32.3627V37.8213C134.921 37.855 134.915 37.8886 134.904 37.9201C134.892 37.9516 134.874 37.9804 134.85 38.0047C134.826 38.028 134.797 38.0461 134.766 38.0579C134.734 38.0697 134.7 38.0749 134.667 38.0733H134.471C134.437 38.075 134.404 38.0698 134.372 38.058C134.34 38.0462 134.312 38.028 134.287 38.0047C134.264 37.9804 134.246 37.9516 134.234 37.9201C134.222 37.8886 134.217 37.855 134.218 37.8213V32.7747H131.829V33.8533C131.829 36.6667 131.204 38.0733 129.956 38.0733ZM138.384 38.188C138.03 38.191 137.68 38.1125 137.361 37.9587C137.061 37.8174 136.801 37.6047 136.603 37.3393C136.422 37.089 136.326 36.7879 136.327 36.4793C136.327 35.9747 136.53 35.562 136.936 35.2407C137.35 34.92 137.905 34.7133 138.602 34.6213L140.418 34.3693V33.968C140.418 33.548 140.287 33.2267 140.027 33.0047C139.774 32.7753 139.384 32.6607 138.855 32.6607C138.465 32.6607 138.143 32.7373 137.889 32.89C137.645 33.0433 137.487 33.2267 137.419 33.4407C137.399 33.5148 137.359 33.582 137.304 33.6353C137.257 33.6687 137.2 33.685 137.143 33.6813H136.982C136.915 33.6819 136.849 33.6574 136.798 33.6127C136.753 33.5618 136.729 33.4963 136.729 33.4287C136.729 33.2607 136.806 33.066 136.959 32.844C137.112 32.6147 137.35 32.416 137.672 32.248C137.993 32.0793 138.388 31.9953 138.855 31.9953C139.674 31.9953 140.257 32.1907 140.601 32.58C140.946 32.97 141.118 33.444 141.118 34.002V37.8213C141.12 37.855 141.115 37.8886 141.103 37.9201C141.091 37.9516 141.073 37.9804 141.05 38.0047C141.025 38.028 140.996 38.0461 140.965 38.0579C140.933 38.0697 140.899 38.0749 140.866 38.0733H140.67C140.636 38.0749 140.603 38.0697 140.571 38.0579C140.54 38.0461 140.511 38.028 140.486 38.0047C140.463 37.9804 140.445 37.9516 140.433 37.9201C140.421 37.8886 140.416 37.855 140.418 37.8213V37.282C140.249 37.5347 140 37.7487 139.671 37.9247C139.349 38.1 138.92 38.188 138.384 38.188ZM138.499 37.5227C139.058 37.5227 139.517 37.3393 139.877 36.9727C140.237 36.606 140.418 36.078 140.418 35.39V35L138.935 35.2067C138.307 35.2907 137.832 35.436 137.511 35.642C137.189 35.8487 137.028 36.1087 137.028 36.422C137.028 36.774 137.173 37.0453 137.465 37.236C137.763 37.4273 138.108 37.5227 138.499 37.5227ZM144.762 38.0733C144.728 38.0749 144.695 38.0697 144.663 38.0579C144.631 38.0461 144.603 38.028 144.578 38.0047C144.555 37.9804 144.537 37.9516 144.525 37.9201C144.513 37.8886 144.508 37.855 144.509 37.8213V32.7747H142.407C142.373 32.7764 142.339 32.7713 142.308 32.7596C142.276 32.7479 142.247 32.7299 142.223 32.7067C142.2 32.6823 142.181 32.6534 142.17 32.6218C142.158 32.5901 142.153 32.5564 142.154 32.5227V32.3627C142.154 32.286 142.177 32.2247 142.223 32.1787C142.247 32.1554 142.276 32.1372 142.308 32.1254C142.339 32.1136 142.373 32.1084 142.407 32.11H147.313C147.39 32.11 147.451 32.1333 147.497 32.1787C147.543 32.2253 147.566 32.2853 147.566 32.3627V32.5227C147.567 32.5564 147.562 32.5901 147.55 32.6217C147.539 32.6533 147.52 32.6822 147.497 32.7067C147.473 32.73 147.444 32.7481 147.412 32.7599C147.38 32.7717 147.347 32.777 147.313 32.7753H145.21V37.8213C145.212 37.855 145.206 37.8886 145.195 37.9201C145.183 37.9516 145.165 37.9804 145.141 38.0047C145.117 38.028 145.088 38.0462 145.057 38.058C145.025 38.0698 144.991 38.075 144.958 38.0733H144.762ZM150.864 38.188C150.136 38.188 149.55 37.9513 149.106 37.4773C148.662 36.9953 148.409 36.3533 148.348 35.5507L148.336 35.092L148.348 34.6333C148.409 33.838 148.658 33.2 149.095 32.718C149.539 32.236 150.129 31.9953 150.864 31.9953C151.661 31.9953 152.281 32.2593 152.726 32.7867C153.177 33.314 153.403 34.0367 153.403 34.954V35.126C153.403 35.2027 153.376 35.264 153.323 35.31C153.298 35.3333 153.27 35.3513 153.238 35.3631C153.207 35.3749 153.173 35.3802 153.139 35.3787H149.049V35.4933C149.064 35.8527 149.144 36.1887 149.29 36.5027C149.443 36.808 149.654 37.0567 149.922 37.248C150.19 37.4313 150.504 37.5227 150.864 37.5227C151.286 37.5227 151.626 37.4427 151.887 37.282C152.155 37.114 152.346 36.946 152.461 36.7773C152.53 36.686 152.58 36.6287 152.611 36.6053C152.649 36.5827 152.714 36.5713 152.806 36.5713H152.99C153.052 36.5692 153.113 36.5895 153.162 36.6287C153.184 36.6465 153.202 36.6692 153.214 36.695C153.226 36.7208 153.231 36.749 153.231 36.7773C153.231 36.938 153.128 37.1333 152.921 37.3627C152.722 37.584 152.442 37.7793 152.082 37.9473C151.722 38.108 151.316 38.188 150.864 38.188ZM152.702 34.736V34.6907C152.702 34.102 152.534 33.616 152.197 33.234C151.867 32.852 151.423 32.6607 150.864 32.6607C150.305 32.6607 149.861 32.852 149.531 33.234C149.21 33.616 149.049 34.102 149.049 34.6907V34.736H152.702ZM162.249 37.764C162.286 37.8051 162.306 37.8578 162.307 37.9127C162.307 38.02 162.234 38.0733 162.088 38.0733H161.79C161.675 38.0733 161.575 38.02 161.491 37.9127L159.676 35.3553H158.653V37.8213C158.655 37.855 158.649 37.8886 158.638 37.9201C158.626 37.9516 158.608 37.9804 158.584 38.0047C158.56 38.028 158.531 38.0461 158.499 38.0579C158.468 38.0697 158.434 38.0749 158.401 38.0733H158.205C158.171 38.075 158.137 38.0698 158.106 38.058C158.074 38.0462 158.045 38.028 158.021 38.0047C157.998 37.9804 157.98 37.9516 157.968 37.9201C157.956 37.8886 157.951 37.855 157.952 37.8213V35.3553H156.93L155.091 37.9127C155.06 37.9637 155.016 38.0056 154.964 38.0338C154.911 38.0621 154.852 38.0758 154.792 38.0733H154.494C154.348 38.0733 154.275 38.02 154.275 37.9127C154.281 37.8589 154.301 37.8077 154.333 37.764L156.343 34.9427L154.551 32.408C154.524 32.3669 154.509 32.3196 154.505 32.2707C154.505 32.164 154.578 32.1107 154.724 32.1107H154.953C155.068 32.1107 155.168 32.1673 155.252 32.282L156.941 34.6907H157.952V32.3627C157.952 32.286 157.975 32.2247 158.021 32.1787C158.045 32.1554 158.074 32.1372 158.106 32.1254C158.137 32.1136 158.171 32.1084 158.205 32.11H158.401C158.477 32.11 158.538 32.1333 158.584 32.1787C158.63 32.2253 158.653 32.2853 158.653 32.3627V34.6907H159.618L161.33 32.282C161.414 32.1673 161.514 32.11 161.629 32.11H161.858C161.927 32.11 161.981 32.1253 162.019 32.156C162.041 32.1659 162.059 32.1822 162.072 32.2027C162.084 32.2232 162.09 32.2469 162.088 32.2707C162.088 32.3013 162.07 32.3473 162.031 32.408L160.239 34.9427L162.249 37.764ZM165.743 38.188C165.014 38.188 164.429 37.9513 163.985 37.4773C163.54 36.9953 163.287 36.3533 163.226 35.5507L163.214 35.092L163.226 34.6333C163.287 33.838 163.536 33.2 163.973 32.718C164.417 32.236 165.007 31.9953 165.743 31.9953C166.539 31.9953 167.159 32.2593 167.604 32.7867C168.056 33.314 168.281 34.0367 168.281 34.954V35.126C168.281 35.2027 168.255 35.264 168.201 35.31C168.177 35.3333 168.148 35.3515 168.116 35.3633C168.085 35.3751 168.051 35.3803 168.018 35.3787H163.927V35.4933C163.942 35.8527 164.023 36.1887 164.168 36.5027C164.322 36.808 164.532 37.0567 164.8 37.248C165.069 37.4313 165.383 37.5227 165.743 37.5227C166.164 37.5227 166.505 37.4427 166.765 37.282C167.033 37.114 167.225 36.946 167.34 36.7773C167.408 36.686 167.458 36.6287 167.489 36.6053C167.527 36.5827 167.592 36.5713 167.684 36.5713H167.868C167.93 36.5692 167.992 36.5895 168.04 36.6287C168.062 36.6465 168.08 36.6692 168.092 36.695C168.104 36.7208 168.11 36.749 168.109 36.7773C168.109 36.938 168.006 37.1333 167.799 37.3627C167.6 37.584 167.32 37.7793 166.96 37.9473C166.6 38.108 166.194 38.188 165.743 38.188ZM167.581 34.736V34.6907C167.581 34.102 167.412 33.616 167.075 33.234C166.746 32.852 166.302 32.6607 165.743 32.6607C165.183 32.6607 164.739 32.852 164.409 33.234C164.088 33.616 163.927 34.102 163.927 34.6907V34.736H167.581ZM174.554 32.11C174.584 32.1099 174.614 32.1159 174.642 32.1277C174.669 32.1395 174.694 32.1569 174.715 32.1787C174.736 32.1976 174.753 32.2206 174.765 32.2463C174.777 32.2719 174.783 32.2998 174.784 32.328V37.8213C174.785 37.855 174.78 37.8886 174.768 37.9201C174.756 37.9516 174.738 37.9804 174.715 38.0047C174.691 38.028 174.662 38.0461 174.63 38.0579C174.599 38.0697 174.565 38.0749 174.531 38.0733H174.336C174.302 38.075 174.268 38.0698 174.237 38.058C174.205 38.0462 174.176 38.028 174.152 38.0047C174.129 37.9804 174.11 37.9516 174.099 37.9201C174.087 37.8886 174.081 37.855 174.083 37.8213V33.28L170.544 37.9013C170.46 38.016 170.36 38.0733 170.245 38.0733H170.027C169.997 38.0735 169.967 38.0675 169.939 38.0557C169.912 38.0439 169.887 38.0265 169.866 38.0047C169.844 37.9841 169.827 37.9592 169.815 37.9315C169.803 37.9039 169.797 37.8741 169.797 37.844V32.3627C169.797 32.286 169.82 32.2247 169.866 32.1787C169.891 32.1553 169.92 32.1372 169.951 32.1254C169.983 32.1136 170.016 32.1083 170.05 32.11H170.245C170.279 32.1083 170.312 32.1136 170.344 32.1254C170.376 32.1372 170.404 32.1553 170.429 32.1787C170.475 32.2253 170.498 32.2853 170.498 32.3627V36.904L174.037 32.282C174.121 32.1673 174.221 32.11 174.336 32.11H174.554ZM172.29 31.3073C171.701 31.3073 171.283 31.1807 171.038 30.9287C170.801 30.6767 170.682 30.3594 170.682 29.9774C170.682 29.916 170.701 29.866 170.739 29.828C170.759 29.805 170.784 29.7868 170.812 29.7749C170.84 29.763 170.87 29.7577 170.9 29.7593H171.073C171.141 29.7593 171.195 29.782 171.234 29.828C171.253 29.8477 171.268 29.8711 171.278 29.8968C171.288 29.9225 171.292 29.9499 171.291 29.9774C171.291 30.1907 171.364 30.3707 171.509 30.516C171.662 30.6614 171.923 30.734 172.29 30.734C172.658 30.734 172.915 30.6614 173.06 30.516C173.213 30.3707 173.29 30.1914 173.29 29.9774C173.289 29.9499 173.293 29.9224 173.303 29.8967C173.313 29.871 173.328 29.8476 173.348 29.828C173.367 29.805 173.392 29.7868 173.42 29.7749C173.448 29.763 173.478 29.7576 173.509 29.7593H173.681C173.75 29.7593 173.803 29.782 173.841 29.828C173.861 29.8476 173.876 29.871 173.886 29.8967C173.895 29.9224 173.9 29.9499 173.899 29.9774C173.899 30.3594 173.776 30.6767 173.531 30.9287C173.294 31.1813 172.88 31.3073 172.29 31.3073ZM74.5001 23.1654C72.9217 23.1654 71.658 22.6834 70.7082 21.72C69.7737 20.7414 69.2607 19.4114 69.1686 17.7294L69.1459 16.9494L69.1686 16.1927C69.2754 14.5414 69.7964 13.226 70.7309 12.248C71.6807 11.2694 72.9297 10.78 74.4767 10.78C76.1772 10.78 77.4951 11.3227 78.4295 12.408C79.364 13.4787 79.8309 14.9314 79.8309 16.766V17.156C79.8309 17.3094 79.7774 17.4387 79.6699 17.546C79.5784 17.6374 79.4555 17.6834 79.3025 17.6834H71.3514V17.89C71.3975 18.8834 71.696 19.7327 72.2478 20.436C72.8148 21.124 73.5576 21.468 74.4767 21.468C75.1814 21.468 75.7558 21.33 76.2 21.0547C76.6602 20.7647 76.9968 20.4667 77.2112 20.1607C77.3495 19.9774 77.449 19.87 77.5098 19.8394C77.5866 19.7934 77.7169 19.7707 77.9005 19.7707H79.0267C79.1649 19.7707 79.2798 19.8087 79.3713 19.8854C79.4176 19.9247 79.4541 19.9742 79.4781 20.0299C79.5021 20.0856 79.5128 20.1461 79.5096 20.2067C79.5096 20.5427 79.2945 20.948 78.8657 21.422C78.4523 21.896 77.8625 22.3087 77.0963 22.6607C76.3456 22.9967 75.4799 23.1654 74.5001 23.1654ZM77.6481 16.1007V16.032C77.6481 14.9774 77.3568 14.1207 76.7751 13.4634C76.208 12.79 75.4418 12.454 74.4767 12.454C73.5115 12.454 72.7454 12.7907 72.179 13.4634C71.6272 14.1207 71.3514 14.9767 71.3514 16.032V16.1007H77.6481ZM83.1305 27.2934C83.0579 27.2948 82.9857 27.2813 82.9185 27.2538C82.8513 27.2263 82.7905 27.1853 82.7398 27.1333C82.6476 27.0413 82.6015 26.9187 82.6015 26.7667V11.536C82.6015 11.3827 82.6476 11.2607 82.7398 11.1694C82.8466 11.0627 82.9769 11.0087 83.1305 11.0087H84.1872C84.2566 11.0059 84.3258 11.0189 84.3896 11.0466C84.4533 11.0743 84.5099 11.116 84.5552 11.1687C84.608 11.2139 84.6498 11.2704 84.6775 11.334C84.7053 11.3976 84.7183 11.4667 84.7155 11.536V12.5454C85.5738 11.368 86.8302 10.7787 88.4847 10.7787C90.0931 10.7787 91.2954 11.284 92.0922 12.2927C92.9044 13.302 93.3406 14.602 93.4021 16.192C93.4174 16.36 93.4248 16.62 93.4248 16.972C93.4248 17.3234 93.4174 17.5834 93.4021 17.752C93.3406 19.3267 92.9044 20.626 92.0922 21.6507C91.28 22.66 90.0777 23.164 88.4847 23.164C86.891 23.164 85.65 22.5907 84.7616 21.444V26.7654C84.7616 26.9187 84.7155 27.0407 84.624 27.132C84.5788 27.1848 84.5222 27.2267 84.4585 27.2545C84.3947 27.2823 84.3255 27.2954 84.256 27.2927L83.1305 27.2934ZM88.0018 21.3074C89.0899 21.3074 89.8787 20.9707 90.369 20.298C90.8746 19.6254 91.1498 18.738 91.1959 17.638C91.2112 17.4847 91.2192 17.2627 91.2192 16.9727C91.2192 14.0827 90.1465 12.6374 88.0018 12.6374C86.9451 12.6374 86.1482 12.9894 85.6119 13.6927C85.0909 14.3807 84.8077 15.206 84.7616 16.17L84.7389 17.0414L84.7616 17.936C84.7923 18.838 85.0835 19.6254 85.6353 20.298C86.1863 20.9714 86.9752 21.3074 88.0018 21.3074ZM101.162 23.1654C99.477 23.1654 98.1671 22.6914 97.2327 21.7434C96.3136 20.7954 95.8233 19.534 95.7619 17.9587L95.7392 16.972L95.7619 15.986C95.8233 14.426 96.3216 13.1727 97.2561 12.2247C98.1905 11.2614 99.4923 10.78 101.162 10.78C102.832 10.78 104.135 11.2614 105.069 12.2247C106.003 13.1727 106.501 14.4267 106.562 15.986C106.578 16.1547 106.585 16.4834 106.585 16.9727C106.585 17.462 106.578 17.7907 106.562 17.9594C106.501 19.534 106.003 20.7954 105.069 21.7434C104.15 22.6914 102.847 23.1654 101.162 23.1654ZM101.162 21.3987C102.127 21.3987 102.885 21.0934 103.437 20.4814C104.004 19.87 104.311 18.9907 104.356 17.844C104.372 17.6907 104.38 17.4007 104.38 16.9727C104.38 16.5447 104.372 16.254 104.356 16.1007C104.311 14.954 104.004 14.0747 103.437 13.4634C102.885 12.852 102.127 12.546 101.162 12.546C100.197 12.546 99.4309 12.852 98.8645 13.4634C98.2974 14.0747 97.9988 14.954 97.9681 16.1007L97.9454 16.9727L97.9681 17.844C97.9988 18.9907 98.2974 19.8707 98.8645 20.4814C99.4309 21.0934 100.197 21.3987 101.162 21.3987ZM113.599 23.1654C112.527 23.1654 111.623 22.9967 110.887 22.6607C110.168 22.3087 109.624 21.9114 109.256 21.4674C108.904 21.0247 108.728 20.6574 108.728 20.3674C108.728 20.214 108.781 20.0994 108.888 20.0227C108.992 19.9378 109.122 19.8896 109.256 19.8854H110.29C110.443 19.8854 110.581 19.962 110.704 20.1147C111.072 20.5427 111.47 20.8794 111.899 21.124C112.327 21.3687 112.903 21.4907 113.623 21.4907C114.419 21.4907 115.062 21.3374 115.552 21.032C116.058 20.7114 116.311 20.2754 116.311 19.7254C116.311 19.358 116.203 19.06 115.989 18.83C115.79 18.5854 115.437 18.3794 114.932 18.2114C114.442 18.0274 113.707 17.8287 112.726 17.6147C111.393 17.324 110.443 16.904 109.877 16.3534C109.325 15.8027 109.049 15.092 109.049 14.22C109.049 13.6394 109.218 13.0887 109.555 12.5687C109.908 12.0334 110.412 11.6054 111.072 11.2847C111.746 10.948 112.55 10.78 113.484 10.78C114.465 10.78 115.3 10.94 115.989 11.2614C116.678 11.5827 117.192 11.9647 117.529 12.408C117.881 12.8367 118.057 13.196 118.057 13.486C118.057 13.624 118.004 13.7387 117.897 13.83C117.852 13.8753 117.798 13.9109 117.739 13.9346C117.679 13.9583 117.616 13.9697 117.552 13.968H116.587C116.498 13.9688 116.409 13.9484 116.329 13.9086C116.25 13.8687 116.18 13.8105 116.127 13.7387C115.882 13.448 115.667 13.226 115.483 13.0734C115.315 12.9054 115.062 12.76 114.725 12.6374C114.403 12.5154 113.99 12.454 113.484 12.454C112.749 12.454 112.183 12.6147 111.784 12.936C111.386 13.2414 111.187 13.6467 111.187 14.1514C111.187 14.4727 111.271 14.748 111.439 14.9774C111.607 15.1907 111.929 15.39 112.404 15.5734C112.895 15.7567 113.599 15.948 114.518 16.1467C115.974 16.4527 117 16.896 117.597 17.4774C118.211 18.0427 118.517 18.7694 118.517 19.656C118.517 20.3134 118.326 20.9094 117.942 21.4447C117.559 21.98 116.992 22.4007 116.242 22.7067C115.507 23.012 114.626 23.1654 113.599 23.1654ZM13.743 8.82336C14.2326 8.82336 14.63 9.2187 14.63 9.70603V13.8234C14.63 14.3107 14.2326 14.706 13.743 14.706H9.6051C9.48883 14.7062 9.37365 14.6835 9.26617 14.6392C9.15868 14.595 9.06099 14.53 8.97867 14.448C8.89636 14.366 8.83104 14.2687 8.78644 14.1615C8.74184 14.0543 8.71884 13.9394 8.71875 13.8234V9.7067C8.71875 9.21936 9.11551 8.82403 9.60577 8.82403L13.743 8.82336Z"
          fill="#FFFFFF"/>
    <path fill-rule="evenodd" clip-rule="evenodd"
          d="M19.2106 0C21.6593 0 23.6437 1.97533 23.6437 4.412V23.5293H4.43378C1.98511 23.5293 0 21.554 0 19.118V4.41133C0 1.976 1.98512 0 4.43311 0H19.2106ZM18.6195 2.94133C19.1673 2.94062 19.6929 3.1571 20.0809 3.54315C20.4688 3.92921 20.6872 4.45324 20.6881 5V18.5293C20.6872 19.0761 20.4688 19.6001 20.0809 19.9862C19.6929 20.3722 19.1673 20.5887 18.6195 20.588H5.02424C4.47643 20.5887 3.95077 20.3722 3.56285 19.9862C3.17493 19.6001 2.95651 19.0761 2.95563 18.5293V5C2.95651 4.45324 3.17493 3.92921 3.56285 3.54315C3.95077 3.1571 4.47643 2.94062 5.02424 2.94133H18.6195Z"
          fill="#FFFFFF"/>
    <path d="M36.3528 8.82336C35.8632 8.82336 35.4658 9.2187 35.4658 9.70603V13.8234C35.4658 14.3107 35.8632 14.706 36.3528 14.706H40.4907C40.9803 14.706 41.3771 14.3107 41.3771 13.8234V9.7067C41.3771 9.21936 40.9803 8.82403 40.4901 8.82403L36.3528 8.82336Z"
          fill="#FFFFFF"/>
    <path fill-rule="evenodd" clip-rule="evenodd"
          d="M30.8848 0C28.4361 0 26.4517 1.97533 26.4517 4.412V23.5293H45.6623C48.1102 23.5293 50.0954 21.554 50.0954 19.118V4.41133C50.0954 1.97533 48.1102 0 45.6623 0H30.8848ZM31.4759 2.94133C30.9281 2.94062 30.4024 3.1571 30.0145 3.54315C29.6266 3.92921 29.4082 4.45324 29.4073 5V18.5293C29.4082 19.0761 29.6266 19.6001 30.0145 19.9862C30.4024 20.3722 30.9281 20.5887 31.4759 20.588H45.0711C45.6189 20.5887 46.1446 20.3722 46.5325 19.9862C46.9204 19.6001 47.1388 19.0761 47.1397 18.5293V5C47.1388 4.45324 46.9204 3.92921 46.5325 3.54315C46.1446 3.1571 45.6189 2.94062 45.0711 2.94133H31.4759Z"
          fill="#FFFFFF"/>
    <path d="M44.1842 27.3534C44.1842 26.8654 44.5816 26.4707 45.0712 26.4707H46.2534C46.743 26.4707 47.1398 26.8654 47.1398 27.3527V29.412H44.1842V27.3534ZM47.1398 35.294H45.0712C44.8364 35.2944 44.6111 35.2017 44.4448 35.0363C44.2784 34.8709 44.1847 34.6464 44.1842 34.412V29.412H42.1156C41.626 29.412 41.2292 29.8067 41.2292 30.294V31.4707C41.2292 31.9574 40.8318 32.3527 40.3422 32.3527H39.1599C38.6703 32.3527 38.2736 32.748 38.2736 33.2354V34.412C38.2736 34.8987 38.6703 35.294 39.1599 35.294H40.3422C40.8318 35.294 41.2292 35.6894 41.2292 36.1767V41.1767H39.1599C38.6703 41.1767 38.2736 41.5714 38.2736 42.0587V43.2354C38.2736 43.7227 37.8768 44.1174 37.3865 44.1174H35.3179V42.0587C35.3179 41.5714 34.9212 41.1767 34.4316 41.1767H33.2493C32.7597 41.1767 32.3623 41.5714 32.3623 42.0587V43.2354C32.3623 43.7227 32.7597 44.1174 33.2493 44.1174H35.3179V49.1174C35.3179 49.6047 35.7147 50 36.205 50H37.3872C37.8768 50 38.2736 49.6047 38.2736 49.1174V47.9414C38.2736 47.454 38.6703 47.0587 39.1599 47.0587H40.3422C40.8318 47.0587 41.2292 46.664 41.2292 46.1767V41.1767H43.2978C43.7874 41.1767 44.1842 40.7814 44.1842 40.294V39.1174C44.1842 38.6307 44.5816 38.2354 45.0712 38.2354H47.1398V43.2354C47.1398 43.7227 47.5372 44.1174 48.0268 44.1174H49.2091C49.6987 44.1174 50.0954 43.7227 50.0954 43.2354V39.1174C50.0954 38.6307 49.6987 38.2354 49.2091 38.2354H47.1398V35.294Z"
          fill="#FFFFFF"/>
    <path d="M47.1399 35.294H49.2092C49.6988 35.294 50.0956 34.8994 50.0956 34.412V30.2934C50.0956 29.8067 49.6988 29.4114 49.2092 29.4114H47.1399V35.294ZM32.3624 30.294C32.3624 29.8074 32.7599 29.412 33.2495 29.412H35.3181V34.412C35.3181 34.8987 34.9213 35.294 34.4317 35.294H33.2495C32.7599 35.294 32.3624 35.6894 32.3624 36.1767V37.3527C32.3624 37.84 31.9657 38.2354 31.4761 38.2354H30.2938C30.1775 38.2355 30.0623 38.2128 29.9548 38.1686C29.8473 38.1243 29.7495 38.0594 29.6672 37.9774C29.5848 37.8954 29.5194 37.7981 29.4748 37.6909C29.4301 37.5837 29.407 37.4688 29.4068 37.3527V36.1767C29.4068 35.6894 29.0101 35.294 28.5205 35.294H27.3382C27.1035 35.2942 26.8784 35.2014 26.7122 35.0361C26.546 34.8707 26.4524 34.6462 26.4519 34.412V33.2354C26.4519 32.748 26.8486 32.3527 27.3382 32.3527H31.4761C31.9657 32.3527 32.3624 31.958 32.3624 31.4707V30.294ZM37.3874 29.412H35.3181V27.3527C35.3181 26.866 35.7148 26.4707 36.2051 26.4707H37.3874C37.877 26.4707 38.2737 26.8654 38.2737 27.3527V28.5294C38.2737 29.0167 37.8776 29.412 37.3874 29.412ZM49.2092 47.0587C49.6988 47.0587 50.0956 47.454 50.0956 47.9414V49.1174C50.0956 49.6047 49.6988 50 49.2092 50H45.0713C44.955 50.0002 44.8398 49.9775 44.7323 49.9332C44.6248 49.889 44.527 49.824 44.4447 49.742C44.3623 49.6601 44.2969 49.5627 44.2522 49.4555C44.2076 49.3484 44.1845 49.2334 44.1843 49.1174V47.9414C44.1843 47.454 44.5817 47.0587 45.0713 47.0587H49.2092ZM32.3624 47.9414C32.3624 47.454 31.9657 47.0587 31.4761 47.0587H30.2938C29.8042 47.0587 29.4068 47.454 29.4068 47.9414V49.1174C29.4068 49.6047 29.8042 50 30.2938 50H31.4761C31.9657 50 32.3624 49.6047 32.3624 49.1174V47.9414ZM26.4519 27.3534C26.4519 26.8654 26.8486 26.4707 27.3382 26.4707H28.5205C29.0101 26.4707 29.4075 26.8654 29.4075 27.3527V28.5294C29.4075 29.0167 29.0101 29.412 28.5205 29.412H27.3382C27.2219 29.4122 27.1068 29.3895 26.9993 29.3452C26.8918 29.301 26.7941 29.236 26.7118 29.154C26.6295 29.072 26.5641 28.9747 26.5195 28.8675C26.4749 28.7603 26.4519 28.6454 26.4519 28.5294V27.3534ZM13.743 41.1767C14.2326 41.1767 14.63 40.7814 14.63 40.294V36.1767C14.63 35.6894 14.2326 35.294 13.743 35.294H9.6051C9.11551 35.294 8.71875 35.6894 8.71875 36.1767V40.294C8.71875 40.7814 9.11551 41.1767 9.60577 41.1767H13.743Z"
          fill="#FFFFFF"/>
    <path fill-rule="evenodd" clip-rule="evenodd"
          d="M19.2106 50C21.6593 50 23.6437 48.0247 23.6437 45.588V26.4707H4.43378C1.98511 26.4707 0 28.446 0 30.882V45.588C0 48.0247 1.98512 50 4.43311 50H19.2106ZM18.6195 47.0587C18.8907 47.0591 19.1594 47.0062 19.4102 46.903C19.661 46.7998 19.8889 46.6482 20.081 46.4571C20.2731 46.2659 20.4256 46.0388 20.5298 45.7888C20.6339 45.5388 20.6877 45.2708 20.6881 45V31.4707C20.6872 30.9239 20.4688 30.3999 20.0809 30.0139C19.6929 29.6278 19.1673 29.4113 18.6195 29.412H5.02424C4.47643 29.4113 3.95077 29.6278 3.56285 30.0139C3.17493 30.3999 2.95651 30.9239 2.95563 31.4707V45C2.95598 45.2708 3.00977 45.5388 3.11393 45.7888C3.21808 46.0388 3.37056 46.2659 3.56266 46.4571C3.75476 46.6482 3.9827 46.7998 4.23348 46.903C4.48427 47.0062 4.75296 47.0591 5.02424 47.0587H18.6195Z"
          fill="#FFFFFF"/>
</svg>
