<svg width="82" height="50" viewBox="0 0 82 50" fill="none" xmlns="http://www.w3.org/2000/svg">
<g clip-path="url(#clip0_520_29)">
<path fill-rule="evenodd" clip-rule="evenodd" d="M38.7558 45.3301C38.954 45.4952 39.1629 45.6603 39.3718 45.82C35.3548 48.4611 30.5237 49.9947 25.3391 49.9947C11.344 49.9947 0 38.8072 0 25C0 11.1928 11.344 0 25.3391 0C30.5237 0 35.3548 1.53887 39.3611 4.17465C39.1575 4.34505 38.954 4.50479 38.7987 4.68051C32.8 9.79233 29.3668 17.2045 29.3668 25C29.3668 32.7902 32.7839 40.2023 38.7558 45.3301ZM82 25C82 38.8072 70.656 49.9947 56.6609 49.9947C51.4709 49.9947 46.6452 48.4611 42.6282 45.82C42.8371 45.6603 43.046 45.4952 43.2442 45.3301C49.2161 40.1917 52.6332 32.7849 52.6332 25C52.6332 17.2045 49.2 9.79233 43.2013 4.68051C43.046 4.50479 42.8425 4.34505 42.6389 4.17465C46.6452 1.53887 51.4709 0 56.6609 0C70.656 0 82 11.1981 82 25ZM41.9587 6.13951C47.2986 10.7188 50.6729 17.4654 50.6729 25C50.6729 32.5346 47.2986 39.2758 41.9587 43.8605C41.6481 44.1267 41.3267 44.393 41 44.6432C40.6733 44.393 40.3519 44.1267 40.0413 43.8605C34.7014 39.2758 31.3271 32.5346 31.3271 25C31.3271 17.4654 34.7014 10.7188 40.0413 6.13951C40.3519 5.86794 40.6733 5.61235 41 5.36209C41.3267 5.61235 41.6481 5.86794 41.9587 6.13951Z" fill="#C8C8C8"/>
</g>
<defs>
<clipPath id="clip0_520_29">
<rect width="82" height="50" fill="white"/>
</clipPath>
</defs>
</svg>
