<svg width="124" height="50" viewBox="0 0 124 50" fill="none" xmlns="http://www.w3.org/2000/svg">
<path d="M47.0792 5.70959L30.8445 44.3949H20.2526L12.2634 13.5202C11.7784 11.6185 11.3592 10.9218 9.88151 10.1206C7.47313 8.81564 3.49599 7.59128 0 6.83073L0.234444 5.70959H17.2849C19.4582 5.70959 21.4119 7.15456 21.9053 9.65424L26.1246 32.0384L36.5519 5.70959H47.0792ZM88.5803 31.7662C88.6229 21.5553 74.4439 20.9934 74.5414 16.4314C74.5718 15.0432 75.8977 13.5673 78.7918 13.1906C80.2275 13.0028 84.1833 12.8596 88.6733 14.9219L90.4332 6.71784C88.019 5.8386 84.917 5 81.0574 5C71.1533 5 64.1833 10.2587 64.1245 17.7887C64.0599 23.3583 69.0976 26.4663 72.8958 28.317C76.8013 30.2122 78.1117 31.4301 78.0968 33.1254C78.0691 35.7206 74.9819 36.8669 72.0969 36.9114C67.0593 36.9888 64.1381 35.5503 61.8085 34.4685L59.9924 42.9441C62.3336 44.0169 66.655 44.9529 71.1352 45C81.6626 45 88.548 39.8065 88.5803 31.7636M114.733 44.3949H124L115.911 5.70959H107.358C106.444 5.70172 105.55 5.9681 104.79 6.47419C104.029 6.98028 103.439 7.70275 103.095 8.54793L88.0578 44.3949H98.5793L100.668 38.6163H113.52L114.733 44.3949ZM103.553 30.687L108.827 16.1599L111.863 30.6857L103.553 30.687ZM61.3958 5.70959L53.1102 44.3949H43.0905L51.3793 5.70959H61.3958Z" fill="#C8C8C8"/>
</svg>
